<svg width="32" height="32" viewBox="0 0 32 32" fill="none" xmlns="http://www.w3.org/2000/svg">
<path d="M11.3334 1.33325C7.6633 1.33325 4.66669 4.32987 4.66669 7.99992C4.66669 11.67 7.6633 14.6666 11.3334 14.6666C15.0034 14.6666 18 11.67 18 7.99992C18 4.32987 15.0034 1.33325 11.3334 1.33325ZM11.3334 3.33325C13.9225 3.33325 16 5.41074 16 7.99992C16 10.5891 13.9225 12.6666 11.3334 12.6666C8.74418 12.6666 6.66669 10.5891 6.66669 7.99992C6.66669 5.41074 8.74418 3.33325 11.3334 3.33325ZM23.3334 15.9999C19.2834 15.9999 16 19.2832 16 23.3332C16 27.3832 19.2834 30.6666 23.3334 30.6666C27.3834 30.6666 30.6667 27.3832 30.6667 23.3332C30.6667 19.2832 27.3834 15.9999 23.3334 15.9999ZM4.14846 17.3333C2.78046 17.3333 1.66669 18.5229 1.66669 19.9856V20.9999C1.66669 23.1872 2.79695 25.0881 4.85028 26.3515C6.57761 27.4148 8.88002 27.9999 11.3334 27.9999C12.7934 27.9999 14.2877 27.7838 15.6524 27.3398C15.3457 26.7524 15.1094 26.124 14.9427 25.4674C13.8114 25.8234 12.558 25.9999 11.3334 25.9999C7.64069 25.9999 3.66669 24.4352 3.66669 20.9999V19.9856C3.66669 19.6316 3.88779 19.3333 4.14846 19.3333H15.6498C16.0331 18.5979 16.5192 17.9259 17.0886 17.3333H4.14846ZM23.3334 17.9999C23.7014 17.9999 24 18.2986 24 18.6666V22.6666H28C28.368 22.6666 28.6667 22.9652 28.6667 23.3332C28.6667 23.7012 28.368 23.9999 28 23.9999H24V27.9999C24 28.3679 23.7014 28.6666 23.3334 28.6666C22.9654 28.6666 22.6667 28.3679 22.6667 27.9999V23.9999H18.6667C18.2987 23.9999 18 23.7012 18 23.3332C18 22.9652 18.2987 22.6666 18.6667 22.6666H22.6667V18.6666C22.6667 18.2986 22.9654 17.9999 23.3334 17.9999Z" fill="#BD4CF1"/>
</svg>
