<svg width="10" height="11" viewBox="0 0 10 11" fill="none" xmlns="http://www.w3.org/2000/svg">
<path d="M5 0.5C7.75698 0.5 10 2.74302 10 5.5C10 8.25698 7.75698 10.5 5 10.5C2.24302 10.5 0 8.25698 0 5.5C0 2.74302 2.24302 0.5 5 0.5ZM5 1.25C2.64835 1.25 0.75 3.14835 0.75 5.5C0.75 7.85165 2.64835 9.75 5 9.75C7.35165 9.75 9.25 7.85165 9.25 5.5C9.25 3.14835 7.35165 1.25 5 1.25ZM3.37842 3.49463C3.47745 3.49697 3.57154 3.53839 3.64014 3.60986L5 4.96973L6.35986 3.60986C6.39482 3.57387 6.43664 3.54525 6.48285 3.52571C6.52907 3.50617 6.57873 3.4961 6.62891 3.49609C6.70354 3.49611 6.77646 3.5184 6.83836 3.56009C6.90025 3.60179 6.9483 3.66101 6.97635 3.73017C7.0044 3.79932 7.01118 3.87528 6.99582 3.94831C6.98047 4.02135 6.94367 4.08814 6.89014 4.14014L5.53027 5.5L6.89014 6.85986C6.92613 6.89442 6.95486 6.93581 6.97465 6.9816C6.99445 7.0274 7.0049 7.07669 7.00541 7.12658C7.00592 7.17647 6.99646 7.22596 6.97761 7.27215C6.95875 7.31834 6.93086 7.3603 6.89558 7.39558C6.8603 7.43086 6.81834 7.45875 6.77215 7.47761C6.72596 7.49646 6.67647 7.50592 6.62658 7.50541C6.57669 7.5049 6.5274 7.49445 6.4816 7.47465C6.43581 7.45486 6.39442 7.42613 6.35986 7.39014L5 6.03027L3.64014 7.39014C3.60558 7.42613 3.56419 7.45486 3.5184 7.47465C3.4726 7.49445 3.42331 7.5049 3.37342 7.50541C3.32353 7.50592 3.27404 7.49646 3.22785 7.47761C3.18166 7.45875 3.1397 7.43086 3.10442 7.39558C3.06914 7.3603 3.04125 7.31834 3.02239 7.27215C3.00354 7.22596 2.99408 7.17647 2.99459 7.12658C2.9951 7.07669 3.00555 7.0274 3.02535 6.9816C3.04514 6.93581 3.07387 6.89442 3.10986 6.85986L4.46973 5.5L3.10986 4.14014C3.05533 4.0878 3.01789 4.0202 3.00244 3.94621C2.98699 3.87222 2.99426 3.79529 3.02329 3.7255C3.05233 3.65572 3.10177 3.59633 3.16514 3.55513C3.22851 3.51393 3.30285 3.49284 3.37842 3.49463Z" fill="#BD4CF1"/>
</svg>
