<svg width="26" height="26" viewBox="0 0 26 26" fill="none" xmlns="http://www.w3.org/2000/svg">
<g clip-path="url(#clip0_19_36)">
<path d="M25.6902 13.2432C25.6902 12.178 25.6037 11.4007 25.4167 10.5946H13.2531V15.4024H20.3928C20.2489 16.5972 19.4716 18.3966 17.7442 19.6057L17.72 19.7666L21.5659 22.746L21.8324 22.7726C24.2794 20.5126 25.6902 17.1874 25.6902 13.2432Z" fill="#4285F4"/>
<path d="M13.2531 25.9107C16.7509 25.9107 19.6875 24.7591 21.8324 22.7726L17.7442 19.6057C16.6502 20.3686 15.1819 20.9012 13.2531 20.9012C9.82711 20.9012 6.91937 18.6413 5.88285 15.5176L5.73092 15.5305L1.73188 18.6254L1.67958 18.7708C3.80999 23.0029 8.18603 25.9107 13.2531 25.9107Z" fill="#34A853"/>
<path d="M5.88284 15.5176C5.60935 14.7115 5.45107 13.8478 5.45107 12.9553C5.45107 12.0628 5.60935 11.1992 5.86845 10.3931L5.86121 10.2214L1.81206 7.07677L1.67958 7.13978C0.801531 8.89597 0.297707 10.8681 0.297707 12.9553C0.297707 15.0426 0.801531 17.0146 1.67958 18.7708L5.88284 15.5176Z" fill="#FBBC05"/>
<path d="M13.2531 5.00937C15.6857 5.00937 17.3267 6.06018 18.2624 6.93833L21.9187 3.36839C19.6732 1.28114 16.7509 0 13.2531 0C8.18603 0 3.80999 2.90773 1.67958 7.13978L5.86846 10.3931C6.91937 7.26938 9.82711 5.00937 13.2531 5.00937Z" fill="#EB4335"/>
</g>
<defs>
<clipPath id="clip0_19_36">
<rect width="26" height="26" fill="white"/>
</clipPath>
</defs>
</svg>
