<svg width="32" height="32" viewBox="0 0 32 32" fill="none" xmlns="http://www.w3.org/2000/svg">
<path d="M8.66669 4.66675C7.41669 4.66675 6.35256 5.1715 5.66929 5.94019C4.98602 6.70887 4.66669 7.69453 4.66669 8.66675C4.66669 9.63897 4.98602 10.6246 5.66929 11.3933C6.35256 12.162 7.41669 12.6667 8.66669 12.6667C9.91669 12.6667 10.9808 12.162 11.6641 11.3933C12.3474 10.6246 12.6667 9.63897 12.6667 8.66675C12.6667 7.69453 12.3474 6.70887 11.6641 5.94019C10.9808 5.1715 9.91669 4.66675 8.66669 4.66675ZM23.3334 4.66675C22.0834 4.66675 21.0192 5.1715 20.336 5.94019C19.6527 6.70887 19.3334 7.69453 19.3334 8.66675C19.3334 9.63897 19.6527 10.6246 20.336 11.3933C21.0192 12.162 22.0834 12.6667 23.3334 12.6667C24.5834 12.6667 25.6475 12.162 26.3307 11.3933C27.014 10.6246 27.3334 9.63897 27.3334 8.66675C27.3334 7.69453 27.014 6.70887 26.3307 5.94019C25.6475 5.1715 24.5834 4.66675 23.3334 4.66675ZM8.66669 6.66675C9.41669 6.66675 9.85256 6.91199 10.1693 7.26831C10.486 7.62463 10.6667 8.13897 10.6667 8.66675C10.6667 9.19453 10.486 9.70887 10.1693 10.0652C9.85256 10.4215 9.41669 10.6667 8.66669 10.6667C7.91669 10.6667 7.48081 10.4215 7.16408 10.0652C6.84736 9.70887 6.66669 9.19453 6.66669 8.66675C6.66669 8.13897 6.84736 7.62463 7.16408 7.26831C7.48081 6.91199 7.91669 6.66675 8.66669 6.66675ZM23.3334 6.66675C24.0834 6.66675 24.5192 6.91199 24.836 7.26831C25.1527 7.62463 25.3334 8.13897 25.3334 8.66675C25.3334 9.19453 25.1527 9.70887 24.836 10.0652C24.5192 10.4215 24.0834 10.6667 23.3334 10.6667C22.5834 10.6667 22.1475 10.4215 21.8307 10.0652C21.514 9.70887 21.3334 9.19453 21.3334 8.66675C21.3334 8.13897 21.514 7.62463 21.8307 7.26831C22.1475 6.91199 22.5834 6.66675 23.3334 6.66675ZM16 11.3334C14.75 11.3334 13.6859 11.8382 13.0026 12.6069C12.3194 13.3755 12 14.3612 12 15.3334C12 16.3056 12.3194 17.2913 13.0026 18.06C13.6859 18.8287 14.75 19.3334 16 19.3334C17.25 19.3334 18.3141 18.8287 18.9974 18.06C19.6807 17.2913 20 16.3056 20 15.3334C20 14.3612 19.6807 13.3755 18.9974 12.6069C18.3141 11.8382 17.25 11.3334 16 11.3334ZM16 13.3334C16.75 13.3334 17.1859 13.5787 17.5026 13.935C17.8194 14.2913 18 14.8056 18 15.3334C18 15.8612 17.8194 16.3755 17.5026 16.7319C17.1859 17.0882 16.75 17.3334 16 17.3334C15.25 17.3334 14.8141 17.0882 14.4974 16.7319C14.1807 16.3755 14 15.8612 14 15.3334C14 14.8056 14.1807 14.2913 14.4974 13.935C14.8141 13.5787 15.25 13.3334 16 13.3334ZM5.00002 14.0001C3.71335 14.0001 2.66669 15.0467 2.66669 16.3334V18.0001C2.66669 20.2401 5.30002 22.0001 8.66669 22.0001H8.80731C9.10731 20.9267 9.89294 20.0532 10.9063 19.6199C10.2729 19.8532 9.50669 20.0001 8.66669 20.0001C6.38002 20.0001 4.66669 18.9467 4.66669 18.0001V16.3334C4.66669 16.1467 4.81335 16.0001 5.00002 16.0001H10.7071C10.6804 15.7801 10.6667 15.5601 10.6667 15.3334C10.6667 14.8734 10.7267 14.4267 10.8334 14.0001H5.00002ZM21.1667 14.0001C21.2734 14.4267 21.3334 14.8734 21.3334 15.3334C21.3334 15.5601 21.3197 15.7801 21.293 16.0001H27C27.1867 16.0001 27.3334 16.1467 27.3334 16.3334V18.0001C27.3334 18.9467 25.62 20.0001 23.3334 20.0001C22.4934 20.0001 21.7271 19.8532 21.0938 19.6199C22.1071 20.0532 22.8927 20.9267 23.1927 22.0001H23.3334C26.7 22.0001 29.3334 20.2401 29.3334 18.0001V16.3334C29.3334 15.0467 28.2867 14.0001 27 14.0001H21.1667ZM12.3334 20.6667C11.0567 20.6667 10 21.7234 10 23.0001V24.6667C10 25.9455 10.8533 26.9876 11.9505 27.6459C13.0478 28.3043 14.4572 28.6667 16 28.6667C17.5428 28.6667 18.9523 28.3043 20.0495 27.6459C21.1467 26.9876 22 25.9455 22 24.6667V23.0001C22 21.7234 20.9433 20.6667 19.6667 20.6667H12.3334ZM12.3334 22.6667H19.6667C19.8634 22.6667 20 22.8034 20 23.0001V24.6667C20 25.0446 19.7333 25.5036 19.0209 25.9311C18.3084 26.3585 17.2185 26.6667 16 26.6667C14.7815 26.6667 13.6916 26.3585 12.9792 25.9311C12.2668 25.5036 12 25.0446 12 24.6667V23.0001C12 22.8034 12.1367 22.6667 12.3334 22.6667Z" fill="#B2B2B2"/>
<path d="M8.35 23C8.442 21.894 8.98333 20.9133 9.79333 20.2453C9.33333 20.3007 8.84333 20.3333 8.33333 20.3333C6.12867 20.3333 4.66667 19.33 4.66667 18.6667V17H10.7053C10.4687 16.3773 10.3333 15.7047 10.3333 15C10.3333 14.774 10.35 14.5527 10.376 14.3333H4.66667C3.196 14.3333 2 15.5293 2 17V18.6667C2 21.0967 4.782 23 8.33333 23C8.33867 23 8.34467 23 8.35 23ZM27.3333 14.3333H21.624C21.65 14.5527 21.6667 14.774 21.6667 15C21.6667 15.7047 21.5313 16.3773 21.2947 17H27.3333V18.6667C27.3333 19.33 25.8713 20.3333 23.6667 20.3333C23.1567 20.3333 22.668 20.3007 22.2073 20.246C23.0173 20.9133 23.5573 21.8933 23.6493 22.9993C23.6547 22.9993 23.6607 22.9993 23.666 22.9993C27.2173 22.9993 29.9993 21.096 29.9993 18.666V17C30 15.5293 28.804 14.3333 27.3333 14.3333ZM16 19.3333C13.6107 19.3333 11.6667 17.3893 11.6667 15C11.6667 12.6107 13.6107 10.6667 16 10.6667C18.3893 10.6667 20.3333 12.6107 20.3333 15C20.3333 17.3893 18.3893 19.3333 16 19.3333ZM16 13.3333C15.0807 13.3333 14.3333 14.0807 14.3333 15C14.3333 15.9193 15.0807 16.6667 16 16.6667C16.9193 16.6667 17.6667 15.9193 17.6667 15C17.6667 14.0807 16.9193 13.3333 16 13.3333ZM16 29.3333C12.4487 29.3333 9.66667 27.43 9.66667 25V23.3333C9.66667 21.8627 10.8627 20.6667 12.3333 20.6667H19.6667C21.1373 20.6667 22.3333 21.8627 22.3333 23.3333V25C22.3333 27.43 19.5513 29.3333 16 29.3333ZM12.3333 23.3333V25C12.3333 25.6633 13.7953 26.6667 16 26.6667C18.2047 26.6667 19.6667 25.6633 19.6667 25V23.3333H12.3333ZM8.66667 12.6667C6.27733 12.6667 4.33333 10.7227 4.33333 8.33333C4.33333 5.944 6.27733 4 8.66667 4C11.056 4 13 5.944 13 8.33333C13 10.7227 11.056 12.6667 8.66667 12.6667ZM8.66667 6.66667C7.74733 6.66667 7 7.414 7 8.33333C7 9.25267 7.74733 10 8.66667 10C9.586 10 10.3333 9.25267 10.3333 8.33333C10.3333 7.414 9.586 6.66667 8.66667 6.66667ZM23.3333 12.6667C20.944 12.6667 19 10.7227 19 8.33333C19 5.944 20.944 4 23.3333 4C25.7227 4 27.6667 5.944 27.6667 8.33333C27.6667 10.7227 25.7227 12.6667 23.3333 12.6667ZM23.3333 6.66667C22.414 6.66667 21.6667 7.414 21.6667 8.33333C21.6667 9.25267 22.414 10 23.3333 10C24.2527 10 25 9.25267 25 8.33333C25 7.414 24.2527 6.66667 23.3333 6.66667Z" fill="#5B5B5B"/>
</svg>
