<svg width="28" height="26" viewBox="0 0 28 26" fill="none" xmlns="http://www.w3.org/2000/svg">
<path d="M6.35 19C6.442 17.894 6.98333 16.9133 7.79333 16.2453C7.33333 16.3007 6.84333 16.3333 6.33333 16.3333C4.12867 16.3333 2.66667 15.33 2.66667 14.6667V13H8.70533C8.46867 12.3773 8.33333 11.7047 8.33333 11C8.33333 10.774 8.35 10.5527 8.376 10.3333H2.66667C1.196 10.3333 0 11.5293 0 13V14.6667C0 17.0967 2.782 19 6.33333 19C6.33867 19 6.34467 19 6.35 19ZM25.3333 10.3333H19.624C19.65 10.5527 19.6667 10.774 19.6667 11C19.6667 11.7047 19.5313 12.3773 19.2947 13H25.3333V14.6667C25.3333 15.33 23.8713 16.3333 21.6667 16.3333C21.1567 16.3333 20.668 16.3007 20.2073 16.246C21.0173 16.9133 21.5573 17.8933 21.6493 18.9993C21.6547 18.9993 21.6607 18.9993 21.666 18.9993C25.2173 18.9993 27.9993 17.096 27.9993 14.666V13C28 11.5293 26.804 10.3333 25.3333 10.3333ZM14 15.3333C11.6107 15.3333 9.66667 13.3893 9.66667 11C9.66667 8.61067 11.6107 6.66667 14 6.66667C16.3893 6.66667 18.3333 8.61067 18.3333 11C18.3333 13.3893 16.3893 15.3333 14 15.3333ZM14 9.33333C13.0807 9.33333 12.3333 10.0807 12.3333 11C12.3333 11.9193 13.0807 12.6667 14 12.6667C14.9193 12.6667 15.6667 11.9193 15.6667 11C15.6667 10.0807 14.9193 9.33333 14 9.33333ZM14 25.3333C10.4487 25.3333 7.66667 23.43 7.66667 21V19.3333C7.66667 17.8627 8.86267 16.6667 10.3333 16.6667H17.6667C19.1373 16.6667 20.3333 17.8627 20.3333 19.3333V21C20.3333 23.43 17.5513 25.3333 14 25.3333ZM10.3333 19.3333V21C10.3333 21.6633 11.7953 22.6667 14 22.6667C16.2047 22.6667 17.6667 21.6633 17.6667 21V19.3333H10.3333ZM6.66667 8.66667C4.27733 8.66667 2.33333 6.72267 2.33333 4.33333C2.33333 1.944 4.27733 0 6.66667 0C9.056 0 11 1.944 11 4.33333C11 6.72267 9.056 8.66667 6.66667 8.66667ZM6.66667 2.66667C5.74733 2.66667 5 3.414 5 4.33333C5 5.25267 5.74733 6 6.66667 6C7.586 6 8.33333 5.25267 8.33333 4.33333C8.33333 3.414 7.586 2.66667 6.66667 2.66667ZM21.3333 8.66667C18.944 8.66667 17 6.72267 17 4.33333C17 1.944 18.944 0 21.3333 0C23.7227 0 25.6667 1.944 25.6667 4.33333C25.6667 6.72267 23.7227 8.66667 21.3333 8.66667ZM21.3333 2.66667C20.414 2.66667 19.6667 3.414 19.6667 4.33333C19.6667 5.25267 20.414 6 21.3333 6C22.2527 6 23 5.25267 23 4.33333C23 3.414 22.2527 2.66667 21.3333 2.66667Z" fill="#5B5B5B"/>
</svg>
