<svg width="32" height="32" viewBox="0 0 32 32" fill="none" xmlns="http://www.w3.org/2000/svg">
<path d="M8.66666 4.66663C7.41666 4.66663 6.35254 5.17138 5.66927 5.94006C4.986 6.70875 4.66666 7.6944 4.66666 8.66663C4.66666 9.63885 4.986 10.6245 5.66927 11.3932C6.35254 12.1619 7.41666 12.6666 8.66666 12.6666C9.91666 12.6666 10.9808 12.1619 11.6641 11.3932C12.3473 10.6245 12.6667 9.63885 12.6667 8.66663C12.6667 7.6944 12.3473 6.70875 11.6641 5.94006C10.9808 5.17138 9.91666 4.66663 8.66666 4.66663ZM23.3333 4.66663C22.0833 4.66663 21.0192 5.17138 20.3359 5.94006C19.6527 6.70875 19.3333 7.6944 19.3333 8.66663C19.3333 9.63885 19.6527 10.6245 20.3359 11.3932C21.0192 12.1619 22.0833 12.6666 23.3333 12.6666C24.5833 12.6666 25.6475 12.1619 26.3307 11.3932C27.014 10.6245 27.3333 9.63885 27.3333 8.66663C27.3333 7.6944 27.014 6.70875 26.3307 5.94006C25.6475 5.17138 24.5833 4.66663 23.3333 4.66663ZM8.66666 6.66663C9.41666 6.66663 9.85254 6.91187 10.1693 7.26819C10.486 7.62451 10.6667 8.13885 10.6667 8.66663C10.6667 9.1944 10.486 9.70875 10.1693 10.0651C9.85254 10.4214 9.41666 10.6666 8.66666 10.6666C7.91666 10.6666 7.48079 10.4214 7.16406 10.0651C6.84733 9.70875 6.66666 9.1944 6.66666 8.66663C6.66666 8.13885 6.84733 7.62451 7.16406 7.26819C7.48079 6.91187 7.91666 6.66663 8.66666 6.66663ZM23.3333 6.66663C24.0833 6.66663 24.5192 6.91187 24.8359 7.26819C25.1527 7.62451 25.3333 8.13885 25.3333 8.66663C25.3333 9.1944 25.1527 9.70875 24.8359 10.0651C24.5192 10.4214 24.0833 10.6666 23.3333 10.6666C22.5833 10.6666 22.1475 10.4214 21.8307 10.0651C21.514 9.70875 21.3333 9.1944 21.3333 8.66663C21.3333 8.13885 21.514 7.62451 21.8307 7.26819C22.1475 6.91187 22.5833 6.66663 23.3333 6.66663ZM16 11.3333C14.75 11.3333 13.6859 11.838 13.0026 12.6067C12.3193 13.3754 12 14.3611 12 15.3333C12 16.3055 12.3193 17.2912 13.0026 18.0599C13.6859 18.8285 14.75 19.3333 16 19.3333C17.25 19.3333 18.3141 18.8285 18.9974 18.0599C19.6807 17.2912 20 16.3055 20 15.3333C20 14.3611 19.6807 13.3754 18.9974 12.6067C18.3141 11.838 17.25 11.3333 16 11.3333ZM16 13.3333C16.75 13.3333 17.1859 13.5785 17.5026 13.9349C17.8193 14.2912 18 14.8055 18 15.3333C18 15.8611 17.8193 16.3754 17.5026 16.7317C17.1859 17.088 16.75 17.3333 16 17.3333C15.25 17.3333 14.8141 17.088 14.4974 16.7317C14.1807 16.3754 14 15.8611 14 15.3333C14 14.8055 14.1807 14.2912 14.4974 13.9349C14.8141 13.5785 15.25 13.3333 16 13.3333ZM5 14C3.71333 14 2.66666 15.0466 2.66666 16.3333V18C2.66666 20.24 5.3 22 8.66666 22H8.80729C9.10729 20.9266 9.89291 20.0531 10.9062 19.6198C10.2729 19.8531 9.50666 20 8.66666 20C6.38 20 4.66666 18.9466 4.66666 18V16.3333C4.66666 16.1466 4.81333 16 5 16H10.707C10.6804 15.78 10.6667 15.56 10.6667 15.3333C10.6667 14.8733 10.7267 14.4266 10.8333 14H5ZM21.1667 14C21.2733 14.4266 21.3333 14.8733 21.3333 15.3333C21.3333 15.56 21.3196 15.78 21.293 16H27C27.1867 16 27.3333 16.1466 27.3333 16.3333V18C27.3333 18.9466 25.62 20 23.3333 20C22.4933 20 21.7271 19.8531 21.0937 19.6198C22.1071 20.0531 22.8927 20.9266 23.1927 22H23.3333C26.7 22 29.3333 20.24 29.3333 18V16.3333C29.3333 15.0466 28.2867 14 27 14H21.1667ZM12.3333 20.6666C11.0567 20.6666 10 21.7233 10 23V24.6666C10 25.9454 10.8533 26.9874 11.9505 27.6458C13.0478 28.3042 14.4572 28.6666 16 28.6666C17.5428 28.6666 18.9522 28.3042 20.0495 27.6458C21.1467 26.9874 22 25.9454 22 24.6666V23C22 21.7233 20.9433 20.6666 19.6667 20.6666H12.3333ZM12.3333 22.6666H19.6667C19.8634 22.6666 20 22.8033 20 23V24.6666C20 25.0445 19.7333 25.5035 19.0208 25.931C18.3084 26.3584 17.2185 26.6666 16 26.6666C14.7815 26.6666 13.6916 26.3584 12.9792 25.931C12.2667 25.5035 12 25.0445 12 24.6666V23C12 22.8033 12.1366 22.6666 12.3333 22.6666Z" fill="#B2B2B2"/>
</svg>
