<svg width="20" height="20" viewBox="0 0 20 20" fill="none" xmlns="http://www.w3.org/2000/svg">
<path d="M10 1.6665C6.09553 1.6665 2.91667 4.84536 2.91667 8.74984C2.91667 10.5027 3.55972 12.1102 4.61589 13.3462L4.61915 13.3494L4.62159 13.3527C4.62159 13.3527 7.63489 16.7911 8.70769 17.8148C9.42607 18.4997 10.5731 18.4997 11.2915 17.8148C12.5143 16.6484 15.3792 13.3511 15.3792 13.3511L15.3809 13.3486L15.3833 13.3462C16.4404 12.1102 17.0833 10.5027 17.0833 8.74984C17.0833 4.84536 13.9045 1.6665 10 1.6665ZM10 2.9165C13.2289 2.9165 15.8333 5.52098 15.8333 8.74984C15.8333 10.1978 15.3056 11.5134 14.4328 12.534C14.4271 12.5405 11.4959 15.893 10.4289 16.9106C10.1814 17.1466 9.81776 17.1466 9.57032 16.9106C8.67858 16.0597 5.57546 12.5443 5.56641 12.534L5.5656 12.5332C4.69389 11.5127 4.16667 10.1974 4.16667 8.74984C4.16667 5.52098 6.77115 2.9165 10 2.9165ZM10 6.24984C9.21876 6.24984 8.55368 6.56531 8.12663 7.04574C7.69959 7.52616 7.50001 8.1422 7.50001 8.74984C7.50001 9.35748 7.69959 9.97351 8.12663 10.4539C8.55368 10.9344 9.21876 11.2498 10 11.2498C10.7813 11.2498 11.4463 10.9344 11.8734 10.4539C12.3004 9.97351 12.5 9.35748 12.5 8.74984C12.5 8.1422 12.3004 7.52616 11.8734 7.04574C11.4463 6.56531 10.7813 6.24984 10 6.24984ZM10 7.49984C10.4688 7.49984 10.7412 7.65312 10.9391 7.87581C11.1371 8.09851 11.25 8.41998 11.25 8.74984C11.25 9.0797 11.1371 9.40116 10.9391 9.62386C10.7412 9.84656 10.4688 9.99984 10 9.99984C9.53126 9.99984 9.25883 9.84656 9.06088 9.62386C8.86292 9.40116 8.75001 9.0797 8.75001 8.74984C8.75001 8.41998 8.86292 8.09851 9.06088 7.87581C9.25883 7.65312 9.53126 7.49984 10 7.49984Z" fill="#6B6B6B"/>
</svg>
