<svg width="8" height="14" viewBox="0 0 8 14" fill="none" xmlns="http://www.w3.org/2000/svg">
  <path d="M0.509769 14.0047C0.639622 14.0009 0.762906 13.9467 0.853519 13.8536L7.35352 7.35363C7.44725 7.25986 7.49991 7.1327 7.49991 7.00012C7.49991 6.86753 7.44725 6.74037 7.35352 6.6466L0.853521 0.146603C0.807448 0.098617 0.752263 0.0603069 0.691199 0.0339159C0.630135 0.00752389 0.564419 -0.00641788 0.497899 -0.00709404C0.43138 -0.0077702 0.365394 0.0048326 0.303806 0.0299772C0.242218 0.0551217 0.186266 0.0923017 0.139227 0.139341C0.0921881 0.18638 0.0550082 0.242332 0.0298636 0.30392C0.00471902 0.365507 -0.00788379 0.431493 -0.00720764 0.498013C-0.00653149 0.564533 0.00741027 0.630248 0.0338018 0.691312C0.0601933 0.752376 0.0985038 0.807561 0.146489 0.853634L6.29297 7.00012L0.146488 13.1466C0.0743547 13.2169 0.0251094 13.3072 0.00519805 13.4059C-0.0147137 13.5046 -0.00436446 13.6071 0.0348916 13.6998C0.0741472 13.7925 0.140482 13.8712 0.225212 13.9256C0.309942 13.98 0.409121 14.0076 0.509769 14.0047Z" fill="black" transform="scale(-1, 1) translate(-8, 0)"/>
</svg>
