<svg width="22" height="27" viewBox="0 0 22 27" fill="none" xmlns="http://www.w3.org/2000/svg">
<path d="M10.6667 0C8.89856 0 7.20286 0.702379 5.95262 1.95262C4.70238 3.20286 4 4.89856 4 6.66667C4 8.43478 4.70238 10.1305 5.95262 11.3807C7.20286 12.631 8.89856 13.3333 10.6667 13.3333C12.4348 13.3333 14.1305 12.631 15.3807 11.3807C16.631 10.1305 17.3333 8.43478 17.3333 6.66667C17.3333 4.89856 16.631 3.20286 15.3807 1.95262C14.1305 0.702379 12.4348 0 10.6667 0ZM18.6807 16H2.65267C1.19 16 0 17.19 0 18.6527V19.6667C0 21.8747 1.25667 23.784 3.538 25.042C5.436 26.09 7.968 26.6667 10.6667 26.6667C15.804 26.6667 21.3333 24.476 21.3333 19.6667V18.6527C21.3333 17.19 20.1433 16 18.6807 16Z" fill="#5B5B5B"/>
</svg>
