<svg width="32" height="32" viewBox="0 0 32 32" fill="none" xmlns="http://www.w3.org/2000/svg">
<path d="M16 2.66663C12.3299 2.66663 9.33331 5.66324 9.33331 9.33329C9.33331 13.0033 12.3299 16 16 16C19.67 16 22.6666 13.0033 22.6666 9.33329C22.6666 5.66324 19.67 2.66663 16 2.66663ZM16 4.66663C18.5892 4.66663 20.6666 6.74412 20.6666 9.33329C20.6666 11.9225 18.5892 14 16 14C13.4108 14 11.3333 11.9225 11.3333 9.33329C11.3333 6.74412 13.4108 4.66663 16 4.66663ZM7.98566 18.6666C6.53245 18.6666 5.33331 19.8658 5.33331 21.319V22.3333C5.33331 24.7361 6.85283 26.5948 8.87107 27.7083C10.8893 28.8218 13.4454 29.3333 16 29.3333C18.5546 29.3333 21.1106 28.8218 23.1289 27.7083C24.8497 26.7589 26.1449 25.2417 26.5078 23.3333H26.6679V21.319C26.6679 19.8658 25.4675 18.6666 24.0143 18.6666H7.98566ZM7.98566 20.6666H24.0143C24.3864 20.6666 24.6679 20.9468 24.6679 21.319V21.3333H24.6666V22.3333C24.6666 23.9305 23.7695 25.0718 22.1627 25.9583C20.556 26.8448 18.2787 27.3333 16 27.3333C13.7212 27.3333 11.444 26.8448 9.83722 25.9583C8.23047 25.0718 7.33331 23.9305 7.33331 22.3333V21.319C7.33331 20.9468 7.61353 20.6666 7.98566 20.6666Z" fill="#B2B2B2"/>
<path d="M15.6667 3C13.8986 3 12.2029 3.70238 10.9526 4.95262C9.70238 6.20286 9 7.89856 9 9.66667C9 11.4348 9.70238 13.1305 10.9526 14.3807C12.2029 15.631 13.8986 16.3333 15.6667 16.3333C17.4348 16.3333 19.1305 15.631 20.3807 14.3807C21.631 13.1305 22.3333 11.4348 22.3333 9.66667C22.3333 7.89856 21.631 6.20286 20.3807 4.95262C19.1305 3.70238 17.4348 3 15.6667 3ZM23.6807 19H7.65267C6.19 19 5 20.19 5 21.6527V22.6667C5 24.8747 6.25667 26.784 8.538 28.042C10.436 29.09 12.968 29.6667 15.6667 29.6667C20.804 29.6667 26.3333 27.476 26.3333 22.6667V21.6527C26.3333 20.19 25.1433 19 23.6807 19Z" fill="#5B5B5B"/>
</svg>
