<svg width="16" height="17" viewBox="0 0 16 17" fill="none" xmlns="http://www.w3.org/2000/svg">
<path d="M8 1.8335C6.34907 1.8335 5 3.18256 5 4.8335C5 6.48443 6.34907 7.8335 8 7.8335C9.65093 7.8335 11 6.48443 11 4.8335C11 3.18256 9.65093 1.8335 8 1.8335ZM13.9544 2.16748C13.9512 2.16767 13.9479 2.16788 13.9447 2.16813C13.2357 2.19778 12.6667 2.79056 12.6667 3.50016V6.76449L10.5059 8.70524C10.4139 8.78781 10.2956 8.8335 10.1719 8.8335H9.16667C9.06942 8.83344 8.97428 8.86174 8.89287 8.91494C8.81147 8.96813 8.74734 9.0439 8.70833 9.13297L8 10.7521L7.35742 9.28467C7.3093 9.17471 7.22324 9.08573 7.11495 9.03398C7.00666 8.98222 6.88336 8.97115 6.76758 9.00277C4.7885 9.54431 3.33333 11.3548 3.33333 13.5002V14.1668H1.5C1.43374 14.1659 1.36796 14.1781 1.30648 14.2028C1.24499 14.2275 1.18903 14.2642 1.14185 14.3107C1.09466 14.3573 1.0572 14.4127 1.03162 14.4738C1.00605 14.535 0.992878 14.6006 0.992878 14.6668C0.992878 14.7331 1.00605 14.7987 1.03162 14.8598C1.0572 14.9209 1.09466 14.9764 1.14185 15.0229C1.18903 15.0694 1.24499 15.1061 1.30648 15.1308C1.36796 15.1555 1.43374 15.1678 1.5 15.1668H14.5C14.5663 15.1678 14.632 15.1555 14.6935 15.1308C14.755 15.1061 14.811 15.0694 14.8581 15.0229C14.9053 14.9764 14.9428 14.9209 14.9684 14.8598C14.994 14.7987 15.0071 14.7331 15.0071 14.6668C15.0071 14.6006 14.994 14.535 14.9684 14.4738C14.9428 14.4127 14.9053 14.3573 14.8581 14.3107C14.811 14.2642 14.755 14.2275 14.6935 14.2028C14.632 14.1781 14.5663 14.1659 14.5 14.1668H12.6667V11.6929C12.6667 11.5735 12.7085 11.4591 12.7858 11.3687L12.7865 11.368L15.2129 8.5236C15.5301 8.15188 15.6855 7.66844 15.6452 7.1818L15.3288 3.38949C15.2705 2.68862 14.6562 2.15207 13.9544 2.16748ZM8 2.8335C9.11049 2.8335 10 3.723 10 4.8335C10 5.94399 9.11049 6.8335 8 6.8335C6.88951 6.8335 6 5.94399 6 4.8335C6 3.723 6.88951 2.8335 8 2.8335ZM13.9811 3.16878C14.1868 3.16648 14.3165 3.2854 14.332 3.47217L14.6484 7.26449C14.6668 7.48652 14.596 7.70556 14.4518 7.87451L12.0254 10.7196C11.7937 10.991 11.6667 11.3366 11.6667 11.6929V14.1668H4.33333V13.5002C4.33333 11.9592 5.30192 10.6892 6.64258 10.1453L7.54167 12.2007C7.58058 12.2899 7.64467 12.3658 7.72608 12.4191C7.80749 12.4724 7.90269 12.5008 8 12.5008C8.09731 12.5008 8.19251 12.4724 8.27392 12.4191C8.35533 12.3658 8.41942 12.2899 8.45833 12.2007L9.49349 9.8335H10.1719C10.5415 9.8335 10.8984 9.69681 11.1738 9.44938H11.1745L13.5007 7.35889C13.5528 7.31203 13.5946 7.25472 13.6232 7.19067C13.6518 7.12663 13.6666 7.05728 13.6667 6.98714V3.50016C13.6667 3.31847 13.8005 3.17931 13.9811 3.16878Z" fill="#6B6B6B"/>
</svg>
