<svg width="32" height="32" viewBox="0 0 32 32" fill="none" xmlns="http://www.w3.org/2000/svg">
<g clip-path="url(#clip0_154_53)">
<path d="M16.1616 0.646484C7.60662 0.646484 0.646469 7.60664 0.646469 16.1616C0.646469 24.7166 7.60662 31.6768 16.1616 31.6768C24.7166 31.6768 31.6768 24.7166 31.6768 16.1616C31.6768 7.60664 24.7166 0.646484 16.1616 0.646484ZM16.1616 2.97376C23.4589 2.97376 29.3495 8.86439 29.3495 16.1616C29.3495 23.4589 23.4589 29.3495 16.1616 29.3495C8.86437 29.3495 2.97374 23.4589 2.97374 16.1616C2.97374 8.86439 8.86437 2.97376 16.1616 2.97376ZM16.098 8.40558C15.8277 8.42056 15.571 8.52932 15.3722 8.71315L10.3298 13.3677C10.2129 13.4701 10.1178 13.5949 10.0499 13.7347C9.98203 13.8745 9.94284 14.0264 9.93465 14.1816C9.92647 14.3368 9.94944 14.492 10.0022 14.6382C10.055 14.7844 10.1365 14.9185 10.242 15.0326C10.3474 15.1468 10.4746 15.2386 10.6161 15.3028C10.7577 15.367 10.9106 15.4022 11.066 15.4063C11.2213 15.4104 11.3759 15.3834 11.5206 15.3268C11.6653 15.2702 11.7972 15.1852 11.9086 15.0768L14.998 12.2253V22.7556C14.9958 22.9098 15.0243 23.0629 15.0818 23.206C15.1393 23.349 15.2247 23.4793 15.3329 23.5891C15.4412 23.6989 15.5702 23.7861 15.7125 23.8456C15.8547 23.9051 16.0074 23.9358 16.1616 23.9358C16.3158 23.9358 16.4685 23.9051 16.6108 23.8456C16.753 23.7861 16.882 23.6989 16.9903 23.5891C17.0986 23.4793 17.184 23.349 17.2415 23.206C17.299 23.0629 17.3274 22.9098 17.3253 22.7556V12.2253L20.4147 15.0768C20.526 15.1852 20.6579 15.2702 20.8026 15.3268C20.9474 15.3834 21.102 15.4104 21.2573 15.4063C21.4126 15.4022 21.5656 15.367 21.7071 15.3028C21.8486 15.2386 21.9758 15.1468 22.0813 15.0326C22.1867 14.9185 22.2682 14.7844 22.321 14.6382C22.3738 14.492 22.3968 14.3368 22.3886 14.1816C22.3804 14.0264 22.3412 13.8745 22.2734 13.7347C22.2055 13.5949 22.1103 13.4701 21.9934 13.3677L16.951 8.71315C16.8366 8.60741 16.7022 8.5257 16.5557 8.47286C16.4092 8.42003 16.2535 8.39715 16.098 8.40558Z" fill="#BD4CF1"/>
</g>
<defs>
<clipPath id="clip0_154_53">
<rect width="32" height="32" fill="white"/>
</clipPath>
</defs>
</svg>

