<svg width="24" height="24" viewBox="0 0 24 24" fill="none" xmlns="http://www.w3.org/2000/svg">
<path d="M5.75 3C4.24011 3 3 4.24011 3 5.75V8.75C3 10.2599 4.24011 11.5 5.75 11.5H18.25C19.7599 11.5 21 10.2599 21 8.75V5.75C21 4.24011 19.7599 3 18.25 3H5.75ZM5.75 4.5H18.25C18.9491 4.5 19.5 5.05089 19.5 5.75V8.75C19.5 9.44911 18.9491 10 18.25 10H5.75C5.05089 10 4.5 9.44911 4.5 8.75V5.75C4.5 5.05089 5.05089 4.5 5.75 4.5ZM5.75 12.5C4.24011 12.5 3 13.7401 3 15.25V18.25C3 19.7599 4.24011 21 5.75 21H18.25C19.7599 21 21 19.7599 21 18.25V15.25C21 13.7401 19.7599 12.5 18.25 12.5H5.75ZM5.75 14H18.25C18.9491 14 19.5 14.5509 19.5 15.25V18.25C19.5 18.9491 18.9491 19.5 18.25 19.5H5.75C5.05089 19.5 4.5 18.9491 4.5 18.25V15.25C4.5 14.5509 5.05089 14 5.75 14Z" fill="#5B5B5B"/>
</svg>
